<?xml version="1.0" encoding="UTF-8" standalone="no"?>
<!-- Created with Inkscape (http://www.inkscape.org/) -->

<svg
   xmlns:dc="http://purl.org/dc/elements/1.1/"
   xmlns:cc="http://creativecommons.org/ns#"
   xmlns:rdf="http://www.w3.org/1999/02/22-rdf-syntax-ns#"
   xmlns:svg="http://www.w3.org/2000/svg"
   xmlns="http://www.w3.org/2000/svg"
   xmlns:xlink="http://www.w3.org/1999/xlink"
   xmlns:sodipodi="http://sodipodi.sourceforge.net/DTD/sodipodi-0.dtd"
   xmlns:inkscape="http://www.inkscape.org/namespaces/inkscape"
   width="22"
   height="22"
   id="svg4895"
   version="1.1"
   inkscape:version="0.48.3.1 r9886"
   sodipodi:docname="away.svg"
   inkscape:export-filename="/home/rpeshkov/Workspace/skype-wrapper/away.png"
   inkscape:export-xdpi="90"
   inkscape:export-ydpi="90">
  <defs
     id="defs4897">
    <linearGradient
       id="linearGradient3760">
      <stop
         style="stop-color:#ffffff;stop-opacity:1;"
         offset="0"
         id="stop3762" />
      <stop
         style="stop-color:#e6e6e6;stop-opacity:1;"
         offset="1"
         id="stop3764" />
    </linearGradient>
    <linearGradient
       inkscape:collect="always"
       xlink:href="#linearGradient3760"
       id="linearGradient3766"
       x1="10.080987"
       y1="1033.3259"
       x2="10.080987"
       y2="1049.3003"
       gradientUnits="userSpaceOnUse" />
  </defs>
  <sodipodi:namedview
     id="base"
     pagecolor="#ffffff"
     bordercolor="#666666"
     borderopacity="1.0"
     inkscape:pageopacity="0.0"
     inkscape:pageshadow="2"
     inkscape:zoom="22.4"
     inkscape:cx="12.476526"
     inkscape:cy="11.523624"
     inkscape:document-units="px"
     inkscape:current-layer="layer1"
     showgrid="false"
     inkscape:window-width="1366"
     inkscape:window-height="720"
     inkscape:window-x="0"
     inkscape:window-y="24"
     inkscape:window-maximized="1" />
  <metadata
     id="metadata4900">
    <rdf:RDF>
      <cc:Work
         rdf:about="">
        <dc:format>image/svg+xml</dc:format>
        <dc:type
           rdf:resource="http://purl.org/dc/dcmitype/StillImage" />
        <dc:title></dc:title>
      </cc:Work>
    </rdf:RDF>
  </metadata>
  <g
     inkscape:label="Layer 1"
     inkscape:groupmode="layer"
     id="layer1"
     transform="translate(0,-1030.3622)">
    <path
       style="opacity:0.5;fill:#000000;fill-opacity:1"
       d="m 7.486921,1034.3622 c -2.411911,0 -4.37022,1.9361 -4.37022,4.322 0,0.7928 0.226731,1.5262 0.603621,2.1649 -0.08065,0.4519 -0.128772,0.9166 -0.128772,1.3924 0,4.2474 3.358647,7.6942 7.501005,7.6942 0.441963,0 0.874791,-0.046 1.295774,-0.1208 0.628589,0.3466 1.353836,0.5473 2.124749,0.5473 2.412426,0 4.370221,-1.9358 4.370221,-4.3219 0,-0.7201 -0.183983,-1.399 -0.498994,-1.996 0.135327,-0.578 0.209256,-1.1823 0.209256,-1.8028 0,-4.2474 -3.358648,-7.6942 -7.501006,-7.6942 -0.608106,0 -1.196419,0.085 -1.762576,0.2254 -0.560931,-0.2593 -1.182952,-0.4105 -1.843058,-0.4105 z m 2.486921,3.8149 2.108652,0 0.01609,4.7404 2.559356,1.4085 -1.014085,1.843 -3.629778,-1.9959 0.02413,-0.04 -0.04829,0 -0.01609,-5.9557 z"
       id="path24965_1_-7"
       inkscape:connector-curvature="0" />
    <path
       style="fill:url(#linearGradient3766);fill-opacity:1"
       d="m 7.4869211,1033.3622 c -2.4119106,0 -4.3702203,1.9361 -4.3702203,4.322 0,0.7928 0.2267316,1.5262 0.6036218,2.1649 -0.080653,0.4519 -0.1287724,0.9166 -0.1287724,1.3924 0,4.2474 3.3586465,7.6942 7.5010048,7.6942 0.441963,0 0.874791,-0.046 1.295774,-0.1208 0.628589,0.3466 1.353836,0.5473 2.124749,0.5473 2.412426,0 4.370221,-1.9358 4.370221,-4.3219 0,-0.7201 -0.183983,-1.399 -0.498994,-1.996 0.135327,-0.578 0.209256,-1.1823 0.209256,-1.8028 0,-4.2474 -3.358648,-7.6942 -7.501006,-7.6942 -0.608106,0 -1.1964194,0.085 -1.7625757,0.2254 -0.560931,-0.2593 -1.182952,-0.4105 -1.8430582,-0.4105 z m 2.4869214,3.8149 2.1086525,0 0.01609,4.7404 2.559356,1.4085 -1.014085,1.843 -3.629779,-1.9959 0.02413,-0.04 -0.048291,0 -0.016095,-5.9557 z"
       id="path24965_1_"
       inkscape:connector-curvature="0" />
  </g>
</svg>
