<?xml version="1.0" encoding="UTF-8" standalone="no"?>
<!-- Created with Inkscape (http://www.inkscape.org/) -->

<svg
   xmlns:dc="http://purl.org/dc/elements/1.1/"
   xmlns:cc="http://creativecommons.org/ns#"
   xmlns:rdf="http://www.w3.org/1999/02/22-rdf-syntax-ns#"
   xmlns:svg="http://www.w3.org/2000/svg"
   xmlns="http://www.w3.org/2000/svg"
   xmlns:xlink="http://www.w3.org/1999/xlink"
   xmlns:sodipodi="http://sodipodi.sourceforge.net/DTD/sodipodi-0.dtd"
   xmlns:inkscape="http://www.inkscape.org/namespaces/inkscape"
   width="22"
   height="22"
   id="svg5477"
   version="1.1"
   inkscape:version="0.48.3.1 r9886"
   sodipodi:docname="dnd.svg"
   inkscape:export-filename="/home/rpeshkov/Workspace/skype-wrapper/dnd.png"
   inkscape:export-xdpi="90"
   inkscape:export-ydpi="90">
  <defs
     id="defs5479">
    <linearGradient
       id="linearGradient3752">
      <stop
         style="stop-color:#ff3200;stop-opacity:1;"
         offset="0"
         id="stop3754" />
      <stop
         style="stop-color:#ce2800;stop-opacity:1;"
         offset="1"
         id="stop3756" />
    </linearGradient>
    <linearGradient
       inkscape:collect="always"
       xlink:href="#linearGradient3752"
       id="linearGradient3758"
       x1="10.5706"
       y1="1033.4072"
       x2="10.5706"
       y2="1049.4435"
       gradientUnits="userSpaceOnUse" />
  </defs>
  <sodipodi:namedview
     id="base"
     pagecolor="#ffffff"
     bordercolor="#666666"
     borderopacity="1.0"
     inkscape:pageopacity="0.0"
     inkscape:pageshadow="2"
     inkscape:zoom="15.839192"
     inkscape:cx="-4.2263377"
     inkscape:cy="9.242012"
     inkscape:document-units="px"
     inkscape:current-layer="layer1"
     showgrid="false"
     inkscape:window-width="1366"
     inkscape:window-height="720"
     inkscape:window-x="0"
     inkscape:window-y="24"
     inkscape:window-maximized="1" />
  <metadata
     id="metadata5482">
    <rdf:RDF>
      <cc:Work
         rdf:about="">
        <dc:format>image/svg+xml</dc:format>
        <dc:type
           rdf:resource="http://purl.org/dc/dcmitype/StillImage" />
        <dc:title></dc:title>
      </cc:Work>
    </rdf:RDF>
  </metadata>
  <g
     inkscape:label="Layer 1"
     inkscape:groupmode="layer"
     id="layer1"
     transform="translate(0,-1030.3622)">
    <path
       style="opacity:0.5;fill:#000000;fill-opacity:1"
       d="m 7.4828964,1034.3622 c -2.411911,0 -4.3621719,1.936 -4.3621719,4.3219 0,0.7961 0.215846,1.5407 0.595573,2.1811 -0.07922,0.448 -0.1207241,0.9049 -0.1207241,1.3763 0,4.2474 3.358647,7.6942 7.5010056,7.6942 0.441964,0 0.874792,-0.046 1.295775,-0.1208 0.628431,0.3464 1.346063,0.5473 2.1167,0.5473 2.412427,0 4.370222,-1.9358 4.370222,-4.3219 0,-0.7199 -0.176076,-1.3991 -0.490946,-1.996 0.135147,-0.5776 0.209256,-1.1827 0.209256,-1.8028 0,-4.2472 -3.358648,-7.6861 -7.501007,-7.6861 -0.60725,0 -1.1971406,0.078 -1.7625756,0.2173 -0.561614,-0.26 -1.189942,-0.4105 -1.851107,-0.4105 z m 7.6217316,6.8893 0.008,2.1007 -7.8873246,0.016 0,-2.1006 7.8792766,-0.016 z"
       id="path24965_4_-2"
       inkscape:connector-curvature="0" />
    <path
       style="fill:url(#linearGradient3758);fill-opacity:1"
       d="m 7.4828966,1033.3622 c -2.411911,0 -4.362172,1.936 -4.362172,4.3219 0,0.7961 0.215846,1.5407 0.595573,2.1811 -0.07922,0.448 -0.120724,0.9049 -0.120724,1.3763 0,4.2474 3.358647,7.6942 7.5010044,7.6942 0.441964,0 0.874792,-0.046 1.295775,-0.1208 0.628431,0.3464 1.346063,0.5473 2.1167,0.5473 2.412427,0 4.370222,-1.9358 4.370222,-4.3219 0,-0.7199 -0.176076,-1.3991 -0.490946,-1.996 0.135147,-0.5776 0.209256,-1.1827 0.209256,-1.8028 0,-4.2472 -3.358648,-7.6861 -7.501007,-7.6861 -0.60725,0 -1.1971394,0.078 -1.7625744,0.2173 -0.561614,-0.26 -1.189942,-0.4105 -1.851107,-0.4105 z m 7.6217304,6.8893 0.008,2.1007 -7.8873234,0.016 0,-2.1006 7.8792754,-0.016 z"
       id="path24965_4_"
       inkscape:connector-curvature="0" />
  </g>
</svg>
