<?xml version="1.0" encoding="UTF-8" standalone="no"?>
<!-- Created with Inkscape (http://www.inkscape.org/) -->

<svg
   xmlns:dc="http://purl.org/dc/elements/1.1/"
   xmlns:cc="http://creativecommons.org/ns#"
   xmlns:rdf="http://www.w3.org/1999/02/22-rdf-syntax-ns#"
   xmlns:svg="http://www.w3.org/2000/svg"
   xmlns="http://www.w3.org/2000/svg"
   xmlns:xlink="http://www.w3.org/1999/xlink"
   xmlns:sodipodi="http://sodipodi.sourceforge.net/DTD/sodipodi-0.dtd"
   xmlns:inkscape="http://www.inkscape.org/namespaces/inkscape"
   width="22"
   height="22"
   id="svg6652"
   version="1.1"
   inkscape:version="0.48.3.1 r9886"
   sodipodi:docname="invisible-message.svg"
   inkscape:export-filename="/home/rpeshkov/Workspace/skype-wrapper/invisible-message.png"
   inkscape:export-xdpi="90"
   inkscape:export-ydpi="90">
  <defs
     id="defs6654">
    <linearGradient
       id="linearGradient7193">
      <stop
         style="stop-color:#ffffff;stop-opacity:1;"
         offset="0"
         id="stop7195" />
      <stop
         style="stop-color:#e6e6e6;stop-opacity:1;"
         offset="1"
         id="stop7197" />
    </linearGradient>
    <linearGradient
       inkscape:collect="always"
       xlink:href="#linearGradient3752"
       id="linearGradient7199"
       x1="11.053381"
       y1="1033.4158"
       x2="11.053381"
       y2="1049.3326"
       gradientUnits="userSpaceOnUse" />
    <linearGradient
       inkscape:collect="always"
       xlink:href="#linearGradient3752"
       id="linearGradient4828"
       gradientUnits="userSpaceOnUse"
       x1="-6.6466365"
       y1="4.8800001"
       x2="-6.6466365"
       y2="22.409523" />
    <linearGradient
       id="linearGradient3752">
      <stop
         style="stop-color:#59c9ff;stop-opacity:1;"
         offset="0"
         id="stop3754" />
      <stop
         id="stop4779"
         offset="0.69999999"
         style="stop-color:#408ade;stop-opacity:1;" />
      <stop
         style="stop-color:#216bbd;stop-opacity:1;"
         offset="1"
         id="stop3756" />
    </linearGradient>
  </defs>
  <sodipodi:namedview
     id="base"
     pagecolor="#ffffff"
     bordercolor="#666666"
     borderopacity="1.0"
     inkscape:pageopacity="0.0"
     inkscape:pageshadow="2"
     inkscape:zoom="11.2"
     inkscape:cx="-8.1959454"
     inkscape:cy="13.043335"
     inkscape:document-units="px"
     inkscape:current-layer="layer1"
     showgrid="false"
     inkscape:window-width="1366"
     inkscape:window-height="720"
     inkscape:window-x="0"
     inkscape:window-y="24"
     inkscape:window-maximized="1" />
  <metadata
     id="metadata6657">
    <rdf:RDF>
      <cc:Work
         rdf:about="">
        <dc:format>image/svg+xml</dc:format>
        <dc:type
           rdf:resource="http://purl.org/dc/dcmitype/StillImage" />
        <dc:title></dc:title>
      </cc:Work>
    </rdf:RDF>
  </metadata>
  <g
     inkscape:label="Layer 1"
     inkscape:groupmode="layer"
     id="layer1"
     transform="translate(0,-1030.3622)">
    <path
       style="opacity:0.5;fill:none;stroke:#000000;stroke-width:1.8253119;stroke-miterlimit:4;stroke-opacity:1;stroke-dasharray:none"
       d="m 7.8912658,1035.2749 c -2.136756,0 -3.871658,1.7151 -3.871658,3.8288 0,0.7032 0.200278,1.359 0.534759,1.9252 -0.07112,0.3994 -0.114082,0.8059 -0.114082,1.2264 0,3.7628 2.975487,6.8164 6.6452762,6.8164 0.391543,0 0.774993,-0.04 1.14795,-0.107 0.556738,0.3069 1.199633,0.4848 1.882354,0.4848 2.137212,0 3.864527,-1.7149 3.864527,-3.8288 0,-0.638 -0.155838,-1.2394 -0.434938,-1.7683 0.119889,-0.512 0.185384,-1.0474 0.185384,-1.5971 0,-3.7627 -2.975487,-6.8093 -6.645277,-6.8093 -0.537975,0 -1.060568,0.069 -1.5614967,0.1925 -0.4975435,-0.2303 -1.0470615,-0.3636 -1.6327985,-0.3636 z"
       id="path24965_3_-6"
       inkscape:connector-curvature="0" />
    <path
       style="fill:none;stroke:url(#linearGradient7199);stroke-width:1.82531189999999999;stroke-miterlimit:4;stroke-opacity:1;stroke-dasharray:none"
       d="m 7.8912661,1034.2749 c -2.136756,0 -3.871658,1.7151 -3.871658,3.8288 0,0.7032 0.200278,1.359 0.534759,1.9252 -0.07112,0.3994 -0.114082,0.8059 -0.114082,1.2264 0,3.7628 2.975487,6.8164 6.6452769,6.8164 0.391543,0 0.774993,-0.04 1.14795,-0.107 0.556738,0.3069 1.199632,0.4848 1.882353,0.4848 2.137212,0 3.864527,-1.7149 3.864527,-3.8288 0,-0.638 -0.155838,-1.2394 -0.434938,-1.7683 0.119889,-0.512 0.185384,-1.0474 0.185384,-1.5971 0,-3.7627 -2.975487,-6.8093 -6.645276,-6.8093 -0.537975,0 -1.060568,0.069 -1.5614979,0.1925 -0.497543,-0.2303 -1.047061,-0.3636 -1.632798,-0.3636 z"
       id="path24965_3_"
       inkscape:connector-curvature="0" />
    <g
       id="g4824"
       transform="translate(2.4274979e-7,-1.0803786e-5)">
      <path
         transform="matrix(1.0829208,0,0,1.0618932,22.633663,1026.1559)"
         d="m -1.5085716,10.082286 c 0,2.860519 -2.2738817,5.179428 -5.078857,5.179428 -2.8049752,0 -5.0788574,-2.318909 -5.0788574,-5.179428 0,-2.8605195 2.2738822,-5.1794287 5.0788574,-5.1794287 2.8049753,0 5.078857,2.3189092 5.078857,5.1794287 z"
         sodipodi:ry="5.1794286"
         sodipodi:rx="5.0788569"
         sodipodi:cy="10.082286"
         sodipodi:cx="-6.5874286"
         id="path4781"
         style="fill:url(#linearGradient4828);fill-opacity:1;stroke:none"
         sodipodi:type="arc" />
      <path
         transform="matrix(0.98446769,0,0,0.96535177,21.985111,1027.1292)"
         d="m -1.5085716,10.082286 c 0,2.860519 -2.2738817,5.179428 -5.078857,5.179428 -2.8049752,0 -5.0788574,-2.318909 -5.0788574,-5.179428 0,-2.8605195 2.2738822,-5.1794287 5.0788574,-5.1794287 2.8049753,0 5.078857,2.3189092 5.078857,5.1794287 z"
         sodipodi:ry="5.1794286"
         sodipodi:rx="5.0788569"
         sodipodi:cy="10.082286"
         sodipodi:cx="-6.5874286"
         id="path4781-6"
         style="opacity:0.5;fill:#f0f0f0;fill-opacity:1;stroke:#000000;stroke-width:1.02584577;stroke-miterlimit:4;stroke-opacity:1;stroke-dasharray:none"
         sodipodi:type="arc" />
    </g>
  </g>
</svg>
