<?xml version="1.0" encoding="UTF-8" standalone="no"?>
<!-- Created with Inkscape (http://www.inkscape.org/) -->

<svg
   xmlns:dc="http://purl.org/dc/elements/1.1/"
   xmlns:cc="http://creativecommons.org/ns#"
   xmlns:rdf="http://www.w3.org/1999/02/22-rdf-syntax-ns#"
   xmlns:svg="http://www.w3.org/2000/svg"
   xmlns="http://www.w3.org/2000/svg"
   xmlns:sodipodi="http://sodipodi.sourceforge.net/DTD/sodipodi-0.dtd"
   xmlns:inkscape="http://www.inkscape.org/namespaces/inkscape"
   width="22"
   height="22"
   id="svg3235"
   version="1.1"
   inkscape:version="0.48.3.1 r9886"
   sodipodi:docname="loading-4.svg">
  <defs
     id="defs3237" />
  <sodipodi:namedview
     id="base"
     pagecolor="#ffffff"
     bordercolor="#666666"
     borderopacity="1.0"
     inkscape:pageopacity="0.0"
     inkscape:pageshadow="2"
     inkscape:zoom="22.4"
     inkscape:cx="4.285474"
     inkscape:cy="9.9001076"
     inkscape:document-units="px"
     inkscape:current-layer="layer1"
     showgrid="false"
     inkscape:window-width="1366"
     inkscape:window-height="720"
     inkscape:window-x="0"
     inkscape:window-y="24"
     inkscape:window-maximized="1" />
  <metadata
     id="metadata3240">
    <rdf:RDF>
      <cc:Work
         rdf:about="">
        <dc:format>image/svg+xml</dc:format>
        <dc:type
           rdf:resource="http://purl.org/dc/dcmitype/StillImage" />
        <dc:title></dc:title>
      </cc:Work>
    </rdf:RDF>
  </metadata>
  <g
     inkscape:label="Layer 1"
     inkscape:groupmode="layer"
     id="layer1"
     transform="translate(0,-1030.3622)">
    <path
       inkscape:connector-curvature="0"
       style="opacity:0.5;fill:#000000;fill-opacity:1"
       d="m 7.5000001,1034.3622 c -2.4121832,0 -4.375,1.9263 -4.375,4.3125 0,0.7823 0.2261481,1.5233 0.59375,2.1563 -0.084115,0.4611 -0.125,0.9201 -0.125,1.4062 0,4.2479 3.3571755,7.6875 7.4999999,7.6875 0.450418,0 0.883935,-0.047 1.3125,-0.125 0.626027,0.3427 1.327435,0.5625 2.09375,0.5625 2.412441,0 4.375,-1.9261 4.375,-4.3125 0,-0.7186 -0.186186,-1.4038 -0.5,-2 0.136397,-0.5801 0.21875,-1.1894 0.21875,-1.8125 0,-4.2479 -3.356917,-7.6875 -7.5,-7.6875 -0.618216,0 -1.2065189,0.074 -1.7812499,0.2188 -0.555998,-0.2537 -1.1599379,-0.4063 -1.8125,-0.4063 z m -1.125,7 2,0 0,2 -2,0 0,-2 z m 3.6249999,0 2,0 0,2 -2,0 0,-2 z m 3.625,0 2,0 0,2 -2,0 0,-2 z"
       id="path24965_2_-6" />
    <path
       style="fill:#f0f0f0;fill-opacity:1"
       d="M 7.5 3 C 5.0878168 3 3.125 4.9263 3.125 7.3125 C 3.125 8.0947885 3.3511481 8.8358156 3.71875 9.46875 C 3.6346349 9.9298643 3.59375 10.388859 3.59375 10.875 C 3.59375 15.1229 6.9509255 18.5625 11.09375 18.5625 C 11.544168 18.5625 11.977685 18.515509 12.40625 18.4375 C 13.032277 18.780242 13.733685 19 14.5 19 C 16.912441 19 18.875 17.0739 18.875 14.6875 C 18.875 13.968868 18.688814 13.283658 18.375 12.6875 C 18.511397 12.107351 18.59375 11.498088 18.59375 10.875 C 18.59375 6.6271 15.236833 3.1875 11.09375 3.1875 C 10.475534 3.1875 9.887231 3.261658 9.3125 3.40625 C 8.756502 3.1525668 8.1525621 3 7.5 3 z M 6.375 10 L 8.375 10 L 8.375 12 L 6.375 12 L 6.375 10 z M 10 10 L 12 10 L 12 12 L 10 12 L 10 10 z M 13.625 10 L 15.625 10 L 15.625 12 L 13.625 12 L 13.625 10 z "
       transform="translate(0,1030.3622)"
       id="path24965_2_" />
  </g>
</svg>
