<?xml version="1.0" encoding="UTF-8" standalone="no"?>
<!-- Created with Inkscape (http://www.inkscape.org/) -->

<svg
   xmlns:dc="http://purl.org/dc/elements/1.1/"
   xmlns:cc="http://creativecommons.org/ns#"
   xmlns:rdf="http://www.w3.org/1999/02/22-rdf-syntax-ns#"
   xmlns:svg="http://www.w3.org/2000/svg"
   xmlns="http://www.w3.org/2000/svg"
   xmlns:xlink="http://www.w3.org/1999/xlink"
   xmlns:sodipodi="http://sodipodi.sourceforge.net/DTD/sodipodi-0.dtd"
   xmlns:inkscape="http://www.inkscape.org/namespaces/inkscape"
   width="22"
   height="22"
   id="svg6060"
   version="1.1"
   inkscape:version="0.48.3.1 r9886"
   sodipodi:docname="offline-message.svg"
   inkscape:export-filename="/home/rpeshkov/Workspace/skype-wrapper/offline-message.png"
   inkscape:export-xdpi="90"
   inkscape:export-ydpi="90">
  <defs
     id="defs6062">
    <linearGradient
       id="linearGradient3752">
      <stop
         style="stop-color:#ffffff;stop-opacity:1;"
         offset="0"
         id="stop3754" />
      <stop
         style="stop-color:#e6e6e6;stop-opacity:1;"
         offset="1"
         id="stop3756" />
    </linearGradient>
    <linearGradient
       inkscape:collect="always"
       xlink:href="#linearGradient3752-6"
       id="linearGradient3758"
       x1="10.507464"
       y1="1033.3441"
       x2="10.507464"
       y2="1049.2972"
       gradientUnits="userSpaceOnUse" />
    <linearGradient
       inkscape:collect="always"
       xlink:href="#linearGradient3752-6"
       id="linearGradient4828"
       gradientUnits="userSpaceOnUse"
       x1="-6.6466365"
       y1="4.8800001"
       x2="-6.6466365"
       y2="22.409523" />
    <linearGradient
       id="linearGradient3752-6">
      <stop
         style="stop-color:#59c9ff;stop-opacity:1;"
         offset="0"
         id="stop3754-7" />
      <stop
         id="stop4779"
         offset="0.69999999"
         style="stop-color:#408ade;stop-opacity:1;" />
      <stop
         style="stop-color:#216bbd;stop-opacity:1;"
         offset="1"
         id="stop3756-6" />
    </linearGradient>
  </defs>
  <sodipodi:namedview
     id="base"
     pagecolor="#ffffff"
     bordercolor="#666666"
     borderopacity="1.0"
     inkscape:pageopacity="0.0"
     inkscape:pageshadow="2"
     inkscape:zoom="15.839192"
     inkscape:cx="0.80000722"
     inkscape:cy="6.4626689"
     inkscape:document-units="px"
     inkscape:current-layer="layer1"
     showgrid="false"
     inkscape:window-width="1366"
     inkscape:window-height="720"
     inkscape:window-x="0"
     inkscape:window-y="24"
     inkscape:window-maximized="1" />
  <metadata
     id="metadata6065">
    <rdf:RDF>
      <cc:Work
         rdf:about="">
        <dc:format>image/svg+xml</dc:format>
        <dc:type
           rdf:resource="http://purl.org/dc/dcmitype/StillImage" />
        <dc:title></dc:title>
      </cc:Work>
    </rdf:RDF>
  </metadata>
  <g
     inkscape:label="Layer 1"
     inkscape:groupmode="layer"
     id="layer1"
     transform="translate(0,-1030.3622)">
    <path
       inkscape:connector-curvature="0"
       style="opacity:0.5;fill:#000000;fill-opacity:1"
       d="m 7.4909455,1034.3622 c -2.411911,0 -4.370221,1.936 -4.370221,4.3219 0,0.7937 0.226069,1.534 0.603622,2.1731 -0.08028,0.4508 -0.128773,0.9097 -0.128773,1.3843 0,4.2474 3.358648,7.6942 7.5010065,7.6942 0.441965,0 0.874792,-0.046 1.295775,-0.1208 0.628431,0.3464 1.354112,0.5473 2.124748,0.5473 2.412426,0 4.362172,-1.9358 4.362172,-4.3219 0,-0.7201 -0.175908,-1.399 -0.490946,-1.996 0.135328,-0.578 0.209256,-1.1823 0.209256,-1.8028 0,-4.2472 -3.358647,-7.6861 -7.501006,-7.6861 -0.607251,0 -1.1971395,0.078 -1.7625745,0.2173 -0.561613,-0.26 -1.181895,-0.4105 -1.843059,-0.4105 z m 5.5372245,3.823 1.569416,1.4084 -2.132796,2.3823 2.366196,2.1167 -1.408451,1.5614 -2.366196,-2.1167 -2.0442665,2.2857 -1.561368,-1.4004 2.044265,-2.2858 -2.301811,-2.0603 1.400403,-1.5694 2.3018115,2.0603 2.132797,-2.3822 z"
       id="path24965_3_-4" />
    <path
       inkscape:connector-curvature="0"
       style="fill:url(#linearGradient3758);fill-opacity:1.0"
       d="m 7.4909453,1033.3622 c -2.411911,0 -4.370221,1.936 -4.370221,4.3219 0,0.7937 0.226069,1.534 0.603622,2.1731 -0.08028,0.4508 -0.128773,0.9097 -0.128773,1.3843 0,4.2474 3.358648,7.6942 7.5010067,7.6942 0.441964,0 0.874791,-0.046 1.295774,-0.1208 0.628431,0.3464 1.354113,0.5473 2.124749,0.5473 2.412426,0 4.362173,-1.9358 4.362173,-4.3219 0,-0.7201 -0.175908,-1.399 -0.490946,-1.996 0.135327,-0.578 0.209256,-1.1823 0.209256,-1.8028 0,-4.2472 -3.358648,-7.6861 -7.501006,-7.6861 -0.607251,0 -1.1971403,0.078 -1.7625757,0.2173 -0.561613,-0.26 -1.181895,-0.4105 -1.843059,-0.4105 z m 5.5372237,3.823 1.569417,1.4084 -2.132797,2.3823 2.366197,2.1167 -1.408451,1.5614 -2.366196,-2.1167 -2.0442667,2.2857 -1.561368,-1.4004 2.0442654,-2.2858 -2.3018114,-2.0603 1.400403,-1.5694 2.3018117,2.0603 2.132796,-2.3822 z"
       id="path24965_3_" />
    <g
       id="g4824"
       transform="translate(2.4274979e-7,-1.0803786e-5)">
      <path
         transform="matrix(1.0829208,0,0,1.0618932,22.633663,1026.1559)"
         d="m -1.5085716,10.082286 c 0,2.860519 -2.2738817,5.179428 -5.078857,5.179428 -2.8049752,0 -5.0788574,-2.318909 -5.0788574,-5.179428 0,-2.8605195 2.2738822,-5.1794287 5.0788574,-5.1794287 2.8049753,0 5.078857,2.3189092 5.078857,5.1794287 z"
         sodipodi:ry="5.1794286"
         sodipodi:rx="5.0788569"
         sodipodi:cy="10.082286"
         sodipodi:cx="-6.5874286"
         id="path4781"
         style="fill:url(#linearGradient4828);fill-opacity:1;stroke:none"
         sodipodi:type="arc" />
      <path
         transform="matrix(0.98446769,0,0,0.96535177,21.985111,1027.1292)"
         d="m -1.5085716,10.082286 c 0,2.860519 -2.2738817,5.179428 -5.078857,5.179428 -2.8049752,0 -5.0788574,-2.318909 -5.0788574,-5.179428 0,-2.8605195 2.2738822,-5.1794287 5.0788574,-5.1794287 2.8049753,0 5.078857,2.3189092 5.078857,5.1794287 z"
         sodipodi:ry="5.1794286"
         sodipodi:rx="5.0788569"
         sodipodi:cy="10.082286"
         sodipodi:cx="-6.5874286"
         id="path4781-6"
         style="opacity:0.5;fill:#f0f0f0;fill-opacity:1;stroke:#000000;stroke-width:1.02584577;stroke-miterlimit:4;stroke-opacity:1;stroke-dasharray:none"
         sodipodi:type="arc" />
    </g>
  </g>
</svg>
