<?xml version="1.0" encoding="UTF-8" standalone="no"?>
<!-- Created with Inkscape (http://www.inkscape.org/) -->

<svg
   xmlns:dc="http://purl.org/dc/elements/1.1/"
   xmlns:cc="http://creativecommons.org/ns#"
   xmlns:rdf="http://www.w3.org/1999/02/22-rdf-syntax-ns#"
   xmlns:svg="http://www.w3.org/2000/svg"
   xmlns="http://www.w3.org/2000/svg"
   xmlns:xlink="http://www.w3.org/1999/xlink"
   xmlns:sodipodi="http://sodipodi.sourceforge.net/DTD/sodipodi-0.dtd"
   xmlns:inkscape="http://www.inkscape.org/namespaces/inkscape"
   width="22"
   height="22"
   id="svg4056"
   version="1.1"
   inkscape:version="0.48.3.1 r9886"
   inkscape:export-filename="/home/rpeshkov/Workspace/skype-wrapper/online-1m.png"
   inkscape:export-xdpi="90"
   inkscape:export-ydpi="90"
   sodipodi:docname="online-1m.svg">
  <defs
     id="defs4058">
    <linearGradient
       id="linearGradient3760">
      <stop
         style="stop-color:#59c9ff;stop-opacity:1;"
         offset="0"
         id="stop3762" />
      <stop
         id="stop3805"
         offset="0.69696969"
         style="stop-color:#408ade;stop-opacity:1;" />
      <stop
         style="stop-color:#216bbd;stop-opacity:1;"
         offset="1"
         id="stop3764" />
    </linearGradient>
    <linearGradient
       inkscape:collect="always"
       xlink:href="#linearGradient3760"
       id="linearGradient3766"
       x1="10.539704"
       y1="1030.3903"
       x2="10.539704"
       y2="1052.1652"
       gradientUnits="userSpaceOnUse"
       gradientTransform="translate(0,-1030.3622)" />
  </defs>
  <sodipodi:namedview
     id="base"
     pagecolor="#ffffff"
     bordercolor="#666666"
     borderopacity="1.0"
     inkscape:pageopacity="0.0"
     inkscape:pageshadow="2"
     inkscape:zoom="5.6568542"
     inkscape:cx="-20.472055"
     inkscape:cy="18.085292"
     inkscape:document-units="px"
     inkscape:current-layer="layer1"
     showgrid="false"
     inkscape:window-width="1366"
     inkscape:window-height="720"
     inkscape:window-x="0"
     inkscape:window-y="24"
     inkscape:window-maximized="1" />
  <metadata
     id="metadata4061">
    <rdf:RDF>
      <cc:Work
         rdf:about="">
        <dc:format>image/svg+xml</dc:format>
        <dc:type
           rdf:resource="http://purl.org/dc/dcmitype/StillImage" />
        <dc:title></dc:title>
      </cc:Work>
    </rdf:RDF>
  </metadata>
  <g
     inkscape:label="Layer 1"
     inkscape:groupmode="layer"
     id="layer1"
     transform="translate(0,-1030.3622)">
    <path
       style="opacity:0.5;fill:#000000;fill-opacity:1"
       d="m 7.4909437,1034.3623 c -2.41191,0 -4.3702199,1.936 -4.3702199,4.3218 0,0.7929 0.226732,1.5263 0.603622,2.165 -0.08065,0.4519 -0.128773,0.9166 -0.128773,1.3924 0,4.2474 3.358648,7.6941 7.5010052,7.6941 0.441992,0 0.87477,-0.046 1.295775,-0.1207 0.628467,0.3463 1.354114,0.5473 2.124748,0.5473 2.412168,0 4.362175,-1.9358 4.362175,-4.322 0,-0.72 -0.17592,-1.3988 -0.490945,-1.9958 0.13533,-0.578 0.20925,-1.1823 0.20925,-1.8028 0,-4.2474 -3.358392,-7.6942 -7.501003,-7.6942 -0.60725,0 -1.1971401,0.086 -1.7625751,0.2254 -0.561574,-0.26 -1.181965,-0.4105 -1.843059,-0.4105 z m 7.2354133,3.6539 1.488934,1.4889 -6.9698191,6.994 -1.4889342,-1.4809 0.01609,-0.016 -1.5613679,-1.5533 1.4808849,-1.4889 1.5613691,1.5533 5.4728362,-5.497 z"
       id="path24965_2_-8"
       inkscape:connector-curvature="0"
       inkscape:export-filename="/home/rpeshkov/Workspace/skype-wrapper/online.png"
       inkscape:export-xdpi="90"
       inkscape:export-ydpi="90" />
    <path
       style="fill:url(#linearGradient3766);fill-opacity:1"
       d="M 15.9375 1 C 14.202031 1 12.677805 1.8762878 11.78125 3.21875 C 11.558532 3.1983283 11.321643 3.1875 11.09375 3.1875 C 10.486499 3.1875 9.9091848 3.26685 9.34375 3.40625 C 8.7821755 3.14625 8.1610938 3 7.5 3 C 5.0880895 3 3.125 4.9266 3.125 7.3125 C 3.125 8.1054 3.3418604 8.8613 3.71875 9.5 C 3.638097 9.9519 3.59375 10.3992 3.59375 10.875 C 3.59375 15.1224 6.9513917 18.5625 11.09375 18.5625 C 11.535742 18.5625 11.985245 18.5123 12.40625 18.4375 C 13.034717 18.7839 13.760615 19 14.53125 19 C 16.943418 19 18.875 17.0737 18.875 14.6875 C 18.875 13.9675 18.690025 13.2845 18.375 12.6875 C 18.51033 12.1095 18.59375 11.4955 18.59375 10.875 C 18.59375 10.651944 18.580652 10.437007 18.5625 10.21875 C 19.972087 9.3345543 20.9375 7.7867159 20.9375 6 C 20.9375 3.2385761 18.698924 1 15.9375 1 z M 12.15625 9.25 C 12.622857 9.7881365 13.188024 10.231374 13.84375 10.53125 L 9.25 15.125 L 7.75 13.65625 L 7.78125 13.625 L 6.21875 12.09375 L 7.6875 10.59375 L 9.25 12.15625 L 12.15625 9.25 z "
       transform="translate(0,1030.3622)"
       id="path24965_2_" />
    <path
       sodipodi:type="arc"
       style="opacity:0.5;fill:#f0f0f0;fill-opacity:1;stroke:#000000;stroke-width:0.4841229;stroke-miterlimit:4;stroke-opacity:1;stroke-dasharray:none"
       id="path3011-9"
       sodipodi:cx="3.25"
       sodipodi:cy="30.4375"
       sodipodi:rx="3"
       sodipodi:ry="2.8125"
       d="m 6.25,30.4375 a 3,2.8125 0 1 1 -6,0 3,2.8125 0 1 1 6,0 z"
       transform="matrix(1.6153846,0,0,1.7230769,10.67436,983.91083)" />
    <rect
       style="fill:#000000;fill-opacity:1;stroke:none"
       id="rect3875"
       width="1"
       height="6"
       x="16"
       y="1033.3622" />
    <rect
       style="fill:#000000;fill-opacity:1;stroke:none"
       id="rect3875-7"
       width="1"
       height="1"
       x="15"
       y="1034.3622" />
  </g>
</svg>
